# xmcd
#
# Track frame offsets: 
#        150
#        9574
#        24660
#        37637
#        49829
#        63538
#        76409
#        91512
#        99356
#        114575
#        129782
#        143145
#        157925
#        172130
#        185080
#        198597
#        208425
#        219483
#        234452
#        247076
#
# Disc length: 3495 seconds
#
# Revision: 0
# Processed by: cddbd v1.4PL0 Copyright (c) Steve Scherf et al.
# Submitted via: ExactAudioCopy v0.90b3
#
DISCID=120da514
DTITLE=Peggy Lee - Let There Be Love
DYEAR=2000
DGENRE=Vocal
TTITLE0=Let There Be Love
TTITLE1=I Don't Know Enough About You
TTITLE2=Mañana (Is Soon Enough For Me)
TTITLE3=That Old Feeling
TTITLE4=What More Can A Woman Do?
TTITLE5=Elmer's Tune
TTITLE6=How Deep Is The Ocean?
TTITLE7=You Bought A New Kind Of Love To Me
TTITLE8=All I Need Is You
TTITLE9=Not A Care In The World
TTITLE10=Them There Eyes
TTITLE11=How Long Has This Been Going On?
TTITLE12=My Old Flame
TTITLE13=It's A Good Day
TTITLE14=Golden Earrings
TTITLE15=Full Moon
TTITLE16=Why Don't You Do Right?
TTITLE17=The Way You Look Tonight
TTITLE18=Caramba! It's The Samba!
TTITLE19=We'll Meet Again
EXTD=
EXTT0=
EXTT1=
EXTT2=
EXTT3=
EXTT4=
EXTT5=
EXTT6=
EXTT7=
EXTT8=
EXTT9=
EXTT10=
EXTT11=
EXTT12=
EXTT13=
EXTT14=
EXTT15=
EXTT16=
EXTT17=
EXTT18=
EXTT19=
PLAYORDER=
